<svg width="32" height="32" viewBox="0 0 32 32" fill="none" xmlns="http://www.w3.org/2000/svg">
<path d="M15.9962 10.9207C13.1995 10.9207 10.9172 13.2031 10.9172 15.9998C10.9172 18.7965 13.1995 21.0789 15.9962 21.0789C18.7929 21.0789 21.0752 18.7965 21.0752 15.9998C21.0752 13.2031 18.7929 10.9207 15.9962 10.9207ZM31.2294 15.9998C31.2294 13.8965 31.2484 11.8123 31.1303 9.71287C31.0122 7.2743 30.4559 5.11007 28.6727 3.32686C26.8857 1.53985 24.7254 0.987361 22.2868 0.869243C20.1836 0.751125 18.0994 0.770176 16 0.770176C13.8968 0.770176 11.8126 0.751125 9.71319 0.869243C7.27467 0.987361 5.11048 1.54366 3.32731 3.32686C1.54032 5.11388 0.987846 7.2743 0.86973 9.71287C0.751614 11.8161 0.770665 13.9004 0.770665 15.9998C0.770665 18.0993 0.751614 20.1873 0.86973 22.2868C0.987846 24.7253 1.54413 26.8896 3.32731 28.6728C5.11429 30.4598 7.27467 31.0123 9.71319 31.1304C11.8164 31.2485 13.9006 31.2294 16 31.2294C18.1032 31.2294 20.1874 31.2485 22.2868 31.1304C24.7254 31.0123 26.8896 30.456 28.6727 28.6728C30.4597 26.8857 31.0122 24.7253 31.1303 22.2868C31.2522 20.1873 31.2294 18.1031 31.2294 15.9998ZM15.9962 23.8147C11.6716 23.8147 8.18149 20.3245 8.18149 15.9998C8.18149 11.6752 11.6716 8.18496 15.9962 8.18496C20.3208 8.18496 23.8109 11.6752 23.8109 15.9998C23.8109 20.3245 20.3208 23.8147 15.9962 23.8147ZM24.131 9.69001C23.1213 9.69001 22.3059 8.87461 22.3059 7.86489C22.3059 6.85517 23.1213 6.03978 24.131 6.03978C25.1407 6.03978 25.9561 6.85517 25.9561 7.86489C25.9564 8.10466 25.9094 8.34212 25.8177 8.56369C25.7261 8.78526 25.5917 8.98658 25.4222 9.15612C25.2526 9.32565 25.0513 9.46008 24.8298 9.55169C24.6082 9.64331 24.3707 9.69031 24.131 9.69001Z" fill="#6D6D6C"/>
</svg>
