<svg width="16" height="22" viewBox="0 0 16 22" fill="none" xmlns="http://www.w3.org/2000/svg">
<path d="M8.00033 0.166504C3.80783 0.166504 0.416992 3.55734 0.416992 7.74984C0.416992 13.4373 8.00033 21.8332 8.00033 21.8332C8.00033 21.8332 15.5837 13.4373 15.5837 7.74984C15.5837 3.55734 12.1928 0.166504 8.00033 0.166504ZM8.00033 10.4582C7.28203 10.4582 6.59316 10.1728 6.08524 9.66492C5.57733 9.15701 5.29199 8.46813 5.29199 7.74984C5.29199 7.03154 5.57733 6.34267 6.08524 5.83476C6.59316 5.32685 7.28203 5.0415 8.00033 5.0415C8.71862 5.0415 9.4075 5.32685 9.91541 5.83476C10.4233 6.34267 10.7087 7.03154 10.7087 7.74984C10.7087 8.46813 10.4233 9.15701 9.91541 9.66492C9.4075 10.1728 8.71862 10.4582 8.00033 10.4582Z" fill="#3C3C3B"/>
</svg>
