<svg width="20" height="20" viewBox="0 0 20 20" fill="none" xmlns="http://www.w3.org/2000/svg">
<path fill-rule="evenodd" clip-rule="evenodd" d="M0.375 3.125C0.375 2.39565 0.664731 1.69618 1.18046 1.18046C1.69618 0.664731 2.39565 0.375 3.125 0.375H4.38267C5.171 0.375 5.8585 0.912167 6.05008 1.67667L7.063 5.73108C7.14508 6.05925 7.1285 6.40434 7.01534 6.72312C6.90217 7.04191 6.69746 7.32021 6.42683 7.52317L5.24158 8.41233C5.11783 8.50492 5.09125 8.64058 5.12608 8.735C5.64343 10.1419 6.46038 11.4196 7.52037 12.4796C8.58035 13.5396 9.85805 14.3566 11.265 14.8739C11.3594 14.9087 11.4942 14.8822 11.5877 14.7584L12.4768 13.5732C12.6798 13.3025 12.9581 13.0978 13.2769 12.9847C13.5957 12.8715 13.9408 12.8549 14.2689 12.937L18.3233 13.9499C19.0878 14.1415 19.625 14.829 19.625 15.6182V16.875C19.625 17.6043 19.3353 18.3038 18.8195 18.8195C18.3038 19.3353 17.6043 19.625 16.875 19.625H14.8125C6.83933 19.625 0.375 13.1607 0.375 5.1875V3.125Z" fill="#3C3C3B"/>
</svg>
