<?xml version="1.0" encoding="utf-8"?><svg xmlns="http://www.w3.org/2000/svg" xmlns:xlink="http://www.w3.org/1999/xlink"><symbol viewBox="0 0 28 28" id="call" xmlns="http://www.w3.org/2000/svg"><path d="M28 19.45v6.84c0 .476-.192.931-.534 1.262a1.582 1.582 0 01-1.17.446 27.438 27.438 0 01-18.257-8.036A27.438 27.438 0 01.001 1.703 1.58 1.58 0 01.448.533 1.76 1.76 0 011.71 0h6.84a1.69 1.69 0 011.662 1.442l.904 6.324a1.688 1.688 0 01-.475 1.425l-2.683 2.683a.564.564 0 00-.094.683 22.965 22.965 0 007.578 7.578c.223.129.504.09.684-.094l2.682-2.682a1.686 1.686 0 011.426-.475l6.324.903A1.689 1.689 0 0128 19.45z"/></symbol><symbol viewBox="0 0 18 18" id="close" xmlns="http://www.w3.org/2000/svg"><g opacity=".2" clip-path="url(#bclip0_248_477)"><path d="M18 1.813L16.187 0 9 7.187 1.813 0 0 1.813 7.187 9 0 16.187 1.813 18 9 10.813 16.187 18 18 16.187 10.813 9 18 1.813z"/></g><defs><clipPath id="bclip0_248_477"><path d="M0 0h18v18H0z"/></clipPath></defs></symbol><symbol viewBox="0 0 32 32" id="in" xmlns="http://www.w3.org/2000/svg"><path d="M15.996 10.92A5.09 5.09 0 0010.917 16a5.09 5.09 0 005.08 5.079 5.09 5.09 0 005.078-5.08 5.09 5.09 0 00-5.079-5.078zM31.23 16c0-2.104.02-4.188-.099-6.287-.118-2.439-.674-4.603-2.457-6.386C26.886 1.54 24.725.987 22.287.869 20.184.751 18.099.77 16 .77c-2.103 0-4.187-.019-6.287.1-2.438.117-4.603.674-6.386 2.457C1.54 5.114.987 7.274.87 9.713.752 11.816.77 13.9.77 16c0 2.1-.018 4.187.1 6.287.118 2.438.674 4.603 2.457 6.386 1.787 1.787 3.948 2.34 6.386 2.457 2.103.119 4.188.1 6.287.1 2.103 0 4.187.018 6.287-.1 2.438-.118 4.603-.674 6.386-2.457 1.787-1.787 2.34-3.948 2.457-6.386.122-2.1.1-4.184.1-6.287zm-15.233 7.815A7.804 7.804 0 018.181 16a7.804 7.804 0 017.815-7.815A7.804 7.804 0 0123.811 16a7.804 7.804 0 01-7.815 7.815zM24.131 9.69a1.823 1.823 0 01-1.825-1.825c0-1.01.815-1.825 1.825-1.825a1.823 1.823 0 011.687 2.524A1.823 1.823 0 0124.13 9.69z"/></symbol><symbol viewBox="0 0 22 18" id="mail" xmlns="http://www.w3.org/2000/svg"><path d="M19.667.333H2.334A2.164 2.164 0 00.178 2.5l-.011 13c0 1.192.975 2.167 2.167 2.167h17.333a2.173 2.173 0 002.167-2.167v-13A2.173 2.173 0 0019.667.333zm0 4.334L11 10.084 2.334 4.667V2.5L11 7.917 19.667 2.5v2.167z"/></symbol><symbol viewBox="0 0 16 22" id="map" xmlns="http://www.w3.org/2000/svg"><path d="M8 .167A7.578 7.578 0 00.417 7.75C.417 13.437 8 21.833 8 21.833s7.584-8.396 7.584-14.083A7.578 7.578 0 008 .167zm0 10.291a2.709 2.709 0 110-5.417 2.709 2.709 0 010 5.417z"/></symbol><symbol viewBox="0 0 20 20" id="tel" xmlns="http://www.w3.org/2000/svg"><path fill-rule="evenodd" clip-rule="evenodd" d="M.375 3.125a2.75 2.75 0 012.75-2.75h1.258A1.72 1.72 0 016.05 1.677L7.063 5.73a1.719 1.719 0 01-.636 1.792l-1.185.89c-.124.092-.15.228-.116.322a10.345 10.345 0 006.139 6.139c.094.035.23.008.323-.116l.889-1.185a1.718 1.718 0 011.792-.636l4.054 1.013a1.72 1.72 0 011.302 1.668v1.257a2.75 2.75 0 01-2.75 2.75h-2.063C6.84 19.625.376 13.161.376 5.187V3.126z"/></symbol><symbol viewBox="0 0 18 18" id="time" xmlns="http://www.w3.org/2000/svg"><path d="M9 18a8.759 8.759 0 01-3.51-.71 9.103 9.103 0 01-2.858-1.922A9.082 9.082 0 01.71 12.51 8.78 8.78 0 010 9a8.74 8.74 0 01.71-3.51 9.103 9.103 0 011.922-2.858A9.082 9.082 0 015.49.71 8.78 8.78 0 019 0a8.74 8.74 0 013.51.71 9.103 9.103 0 012.857 1.922 9.095 9.095 0 011.925 2.858A8.748 8.748 0 0118 9a8.759 8.759 0 01-.71 3.51 9.103 9.103 0 01-1.922 2.857 9.095 9.095 0 01-2.858 1.925A8.748 8.748 0 019 18zm0-1.8c2.01 0 3.713-.697 5.107-2.092C15.503 12.712 16.2 11.01 16.2 9c0-.96-.18-1.883-.54-2.768a7.014 7.014 0 00-1.553-2.34L9 9V1.8c-2.01 0-3.713.698-5.107 2.093C2.498 5.287 1.8 6.99 1.8 9c0 2.01.698 3.713 2.093 5.107C5.287 15.503 6.99 16.2 9 16.2z"/></symbol><symbol viewBox="0 0 30 30" id="vk" xmlns="http://www.w3.org/2000/svg"><path d="M19.61 0h-9.204C1.998 0 0 2 0 10.39v9.204C0 28 1.984 30 10.39 30h9.204C28 30 30 28.015 30 19.61v-9.204C30 1.998 28.015 0 19.61 0zm4.609 21.405H22.03c-.828 0-1.077-.67-2.562-2.155-1.296-1.25-1.843-1.406-2.171-1.406-.454 0-.578.124-.578.75v1.968c0 .532-.172.845-1.563.845a8.538 8.538 0 01-6.672-4.001 17.439 17.439 0 01-3.453-7.25c0-.328.125-.625.75-.625h2.187c.563 0 .765.25.986.828 1.061 3.126 2.873 5.844 3.608 5.844.283 0 .405-.125.405-.828v-3.219c-.093-1.469-.873-1.593-.873-2.124a.54.54 0 01.562-.501h3.437c.47 0 .626.234.626.796v4.345c0 .469.203.625.343.625.282 0 .5-.156 1.016-.672a17.999 17.999 0 002.688-4.47.942.942 0 01.953-.624h2.188c.655 0 .795.329.655.796a27.312 27.312 0 01-2.937 5.048c-.235.36-.33.547 0 .969.218.328.985.969 1.5 1.578a9.729 9.729 0 011.844 2.562c.188.609-.126.921-.75.921z"/></symbol><symbol viewBox="0 0 31 30" id="wa" xmlns="http://www.w3.org/2000/svg"><path d="M15.002 0c8.284 0 15 6.715 15 15s-6.715 15-15 15a14.93 14.93 0 01-7.545-2.032L.008 30l2.028-7.452A14.93 14.93 0 01.002 15c0-8.285 6.715-15 15-15zM9.89 7.95l-.3.012a1.442 1.442 0 00-.558.15 1.94 1.94 0 00-.441.342c-.18.17-.282.316-.392.459a4.095 4.095 0 00-.849 2.517c.003.735.195 1.45.495 2.12.614 1.352 1.623 2.785 2.955 4.113.321.319.636.64.975.939a14.172 14.172 0 005.76 3.069l.852.13c.278.015.555-.006.834-.02.437-.022.864-.14 1.25-.346.196-.101.388-.211.575-.33 0 0 .064-.042.187-.135.203-.15.327-.256.495-.432.124-.129.232-.28.315-.453.117-.245.234-.711.282-1.1.036-.296.026-.459.021-.559-.006-.16-.14-.327-.285-.397l-.873-.392s-1.305-.569-2.103-.931a.745.745 0 00-.264-.062.723.723 0 00-.567.19c-.008-.003-.108.083-1.193 1.397a.525.525 0 01-.552.195 2.145 2.145 0 01-.286-.099c-.186-.078-.25-.108-.378-.162a9.038 9.038 0 01-2.363-1.505c-.188-.165-.364-.345-.544-.518a9.448 9.448 0 01-1.53-1.902l-.088-.143a1.381 1.381 0 01-.154-.307c-.056-.221.092-.398.092-.398s.365-.399.534-.615a6.35 6.35 0 00.395-.56c.177-.285.232-.577.139-.803-.42-1.027-.855-2.048-1.302-3.062-.088-.201-.351-.345-.59-.373a3.886 3.886 0 00-.242-.024 5.078 5.078 0 00-.605.005l.301-.011.002.001z"/></symbol></svg>