<svg width="24" height="23" viewBox="0 0 24 23" fill="none" xmlns="http://www.w3.org/2000/svg">
<path fill-rule="evenodd" clip-rule="evenodd" d="M22.708 2.7078C22.801 2.61482 22.8748 2.50444 22.9251 2.38297C22.9754 2.26149 23.0013 2.13129 23.0013 1.9998C23.0013 1.86831 22.9754 1.73811 22.9251 1.61663C22.8748 1.49515 22.801 1.38477 22.708 1.2918C22.6151 1.19882 22.5047 1.12507 22.3832 1.07475C22.2617 1.02443 22.1315 0.998535 22 0.998535C21.8686 0.998535 21.7384 1.02443 21.6169 1.07475C21.4954 1.12507 21.385 1.19882 21.292 1.2918L12 10.5858L2.70804 1.2918C2.61507 1.19882 2.50469 1.12507 2.38321 1.07475C2.26173 1.02443 2.13153 0.998535 2.00004 0.998535C1.86855 0.998535 1.73835 1.02443 1.61688 1.07475C1.4954 1.12507 1.38502 1.19882 1.29204 1.2918C1.19907 1.38477 1.12531 1.49515 1.075 1.61663C1.02468 1.73811 0.998779 1.86831 0.998779 1.9998C0.998779 2.13129 1.02468 2.26149 1.075 2.38297C1.12531 2.50444 1.19907 2.61482 1.29204 2.7078L10.586 11.9998L1.29204 21.2918C1.10427 21.4796 0.998779 21.7342 0.998779 21.9998C0.998779 22.2653 1.10427 22.52 1.29204 22.7078C1.47982 22.8956 1.73449 23.0011 2.00004 23.0011C2.26559 23.0011 2.52027 22.8956 2.70804 22.7078L12 13.4138L21.292 22.7078C21.4798 22.8956 21.7345 23.0011 22 23.0011C22.2656 23.0011 22.5203 22.8956 22.708 22.7078C22.8958 22.52 23.0013 22.2653 23.0013 21.9998C23.0013 21.7342 22.8958 21.4796 22.708 21.2918L13.414 11.9998L22.708 2.7078Z" fill="#D80000"/>
</svg>
