<svg width="31" height="30" viewBox="0 0 31 30" fill="none" xmlns="http://www.w3.org/2000/svg">
<path d="M15.002 0C23.2865 0 30.002 6.7155 30.002 15C30.002 23.2845 23.2865 30 15.002 30C12.3511 30.0043 9.74696 29.3028 7.45697 27.9675L0.00797423 30L2.03597 22.548C0.699614 20.2573 -0.00245444 17.652 0.00197395 15C0.00197395 6.7155 6.71747 0 15.002 0ZM9.88997 7.95L9.58997 7.962C9.39576 7.97383 9.20594 8.02485 9.03197 8.112C8.86926 8.20414 8.72072 8.31934 8.59097 8.454C8.41097 8.6235 8.30897 8.7705 8.19947 8.913C7.64466 9.63435 7.34593 10.52 7.35047 11.43C7.35347 12.165 7.54547 12.8805 7.84547 13.5495C8.45897 14.9025 9.46847 16.335 10.8005 17.6625C11.1215 17.982 11.4365 18.303 11.7755 18.6015C13.4306 20.0587 15.4029 21.1096 17.5355 21.6705L18.3875 21.801C18.665 21.816 18.9425 21.795 19.2215 21.7815C19.6583 21.7589 20.0849 21.6407 20.471 21.435C20.6674 21.3338 20.8591 21.2237 21.0455 21.105C21.0455 21.105 21.11 21.063 21.233 20.97C21.4355 20.82 21.56 20.7135 21.728 20.538C21.8525 20.409 21.9605 20.2575 22.043 20.085C22.16 19.8405 22.277 19.374 22.325 18.9855C22.361 18.6885 22.3505 18.5265 22.346 18.426C22.34 18.2655 22.2065 18.099 22.061 18.0285L21.188 17.637C21.188 17.637 19.883 17.0685 19.085 16.7055C19.0015 16.669 18.912 16.6482 18.821 16.644C18.7183 16.6335 18.6146 16.645 18.5168 16.6779C18.4191 16.7107 18.3294 16.7641 18.254 16.8345C18.2465 16.8315 18.146 16.917 17.0615 18.231C16.9992 18.3146 16.9135 18.3779 16.8152 18.4126C16.7169 18.4473 16.6104 18.452 16.5095 18.426C16.4118 18.3998 16.316 18.3667 16.223 18.327C16.037 18.249 15.9725 18.219 15.845 18.165C14.9841 17.7893 14.187 17.2817 13.4825 16.6605C13.2935 16.4955 13.118 16.3155 12.938 16.1415C12.3479 15.5763 11.8336 14.937 11.408 14.2395L11.3195 14.097C11.2559 14.0012 11.2045 13.898 11.1665 13.7895C11.1095 13.569 11.258 13.392 11.258 13.392C11.258 13.392 11.6225 12.993 11.792 12.777C11.957 12.567 12.0965 12.363 12.1865 12.2175C12.3635 11.9325 12.419 11.64 12.326 11.4135C11.906 10.3875 11.471 9.366 11.024 8.352C10.9355 8.151 10.673 8.007 10.4345 7.9785C10.3535 7.9695 10.2725 7.9605 10.1915 7.9545C9.99003 7.94449 9.78818 7.9465 9.58697 7.9605L9.88847 7.9485L9.88997 7.95Z" fill="#6D6D6C"/>
</svg>
