<svg width="13" height="11" viewBox="0 0 13 11" fill="none" xmlns="http://www.w3.org/2000/svg">
<path d="M5.78592 0L6.62817 0.816129C6.48169 1.02903 6.28639 1.33656 6.04225 1.73871C5.79812 2.1172 5.48075 2.88602 5.09014 4.04516C4.69953 5.2043 4.50423 6.35161 4.50423 7.4871C4.50423 8.0785 4.55305 8.64624 4.6507 9.19032C4.74836 9.73441 4.84601 10.1247 4.94366 10.3613L5.09014 10.7161L4.79718 11C3.8939 11 3.06385 10.9527 2.30704 10.8581C1.57465 10.7398 1.06197 10.6215 0.769014 10.5032L0.292958 10.3258C0.0976526 9.9 0 9.28495 0 8.48065C0 7.46344 0.195305 6.48172 0.585915 5.53548C1.00094 4.56559 1.4892 3.76129 2.0507 3.12258C2.61221 2.48387 3.17371 1.91613 3.73521 1.41936C4.29671 0.922581 4.77277 0.555914 5.16338 0.319355L5.78592 0ZM12.1577 0L13 0.816129C12.8535 1.02903 12.6582 1.33656 12.4141 1.73871C12.17 2.1172 11.8526 2.88602 11.462 4.04516C11.0714 5.2043 10.8761 6.35161 10.8761 7.4871C10.8761 8.0785 10.9249 8.64624 11.0225 9.19032C11.1202 9.73441 11.2178 10.1247 11.3155 10.3613L11.462 10.7161L11.169 11C10.2657 11 9.43568 10.9527 8.67887 10.8581C7.94648 10.7398 7.4338 10.6215 7.14084 10.5032L6.66479 10.3258C6.46948 9.9 6.37183 9.28495 6.37183 8.48065C6.37183 7.46344 6.56714 6.48172 6.95775 5.53548C7.37277 4.56559 7.86103 3.76129 8.42253 3.12258C8.98404 2.48387 9.54554 1.91613 10.107 1.41936C10.6685 0.922581 11.1446 0.555914 11.5352 0.319355L12.1577 0Z" fill="#3C3C3B"/>
</svg>
