<svg width="150" height="78" viewBox="0 0 150 78" fill="none" xmlns="http://www.w3.org/2000/svg">
<g opacity="0.7" clip-path="url(#clip0_35_38)">
<path d="M11.2548 77.5355V50.904H20.6568C22.5451 50.904 24.4149 51.2735 26.1594 51.9913C27.9039 52.7091 29.4888 53.7612 30.8236 55.0874C32.1584 56.4137 33.217 57.9881 33.9388 59.7207C34.6606 61.4533 35.0315 63.3102 35.0303 65.1852V77.5355H45.7989V62.5439C45.7989 56.2369 43.2757 50.1881 38.7842 45.7284C34.2928 41.2686 28.2011 38.7632 21.8492 38.7632H0V77.5355H11.2548Z" fill="#3C3C3B"/>
<path d="M43.3862 77.0801V65.1852C43.3862 57.0609 37.369 50.4486 29.9575 50.4486H21.0234V77.0801H11.7773V39.2186H31.0399C42.6983 39.2186 52.1369 49.6835 52.1369 62.5439V77.1165L43.3862 77.0801Z" fill="#EDEDED"/>
<path d="M31.0405 39.674C42.4421 39.674 51.7248 49.9386 51.7248 62.5439V76.6247H43.8455V65.1852C43.8455 56.8059 37.6173 49.9932 29.9581 49.9932H20.5562V76.6247H12.2366V39.674H31.0405ZM31.0405 38.7632H11.3193V77.5355H21.4734V50.904H29.9581C37.1219 50.904 42.9282 57.2795 42.9282 65.1852V77.5355H52.642V62.5439C52.642 49.4103 42.9649 38.7632 31.0405 38.7632Z" fill="#3C3C3B"/>
<path d="M27.6188 9.52686V12.3503C27.6188 14.2253 27.2467 16.0819 26.5238 17.8141C25.8009 19.5463 24.7413 21.12 23.4056 22.4454C22.07 23.7708 20.4844 24.8219 18.7394 25.5386C16.9945 26.2553 15.1244 26.6236 13.2361 26.6224H11.2548V0H0V38.7632H14.4285C17.5732 38.7644 20.6874 38.1504 23.593 36.9563C26.4987 35.7622 29.1389 34.0114 31.363 31.8039C33.5871 29.5964 35.3513 26.9754 36.555 24.0907C37.7587 21.206 38.3783 18.1141 38.3783 14.9916V9.52686H27.6188Z" fill="#3C3C3B"/>
<path d="M65.7033 9.30829L65.7491 25.8027C65.8601 28.0776 65.133 30.3149 63.7036 32.0962C62.8097 33.0732 61.7191 33.8529 60.5024 34.3848C59.2857 34.9166 57.9701 35.1889 56.6407 35.1838C55.3167 35.1732 54.0104 34.8797 52.8107 34.3234C51.611 33.7671 50.546 32.9609 49.6879 31.9596C48.6147 30.8029 48.0184 28.8538 48.0184 25.8391L47.9726 9.30829H45.8629V26.8228C45.8036 29.4851 46.7906 32.0658 48.6147 34.018C50.4492 36.0096 53.1673 37.0084 56.7691 37.0145C60.3709 37.0206 63.0952 36.0217 64.9419 34.018C66.8026 32.0487 67.8076 29.4311 67.7396 26.7317V9.30829H65.7033Z" fill="#3C3C3B"/>
<path d="M70.6842 50.0934C67.1069 50.0934 64.3888 51.0922 62.5298 53.0899C60.7049 55.0416 59.7178 57.6226 59.778 60.2851V77.7632H63.8506V60.6039C63.7881 59.6609 63.9292 58.7156 64.2646 57.8312C64.5999 56.9469 65.1218 56.1439 65.7952 55.4761C67.1879 54.3111 68.9504 53.6722 70.7714 53.6722C72.5924 53.6722 74.3549 54.3111 75.7475 55.4761C76.4155 56.1437 76.9333 56.9442 77.2669 57.8249C77.6005 58.7056 77.7423 59.6466 77.683 60.5857V77.7632H81.6364V60.2942C81.7033 57.6197 80.7159 55.0249 78.8846 53.0626C76.995 51.0831 74.2616 50.0934 70.6842 50.0934Z" fill="#3C3C3B"/>
<path d="M74.6104 36.55V9.30829H78.683V32.9888H93.4142L92.1209 36.5682L74.6104 36.55Z" fill="#3C3C3B"/>
<path d="M100.192 36.55V12.8695H91.8086V9.30829H113.318L112.025 12.8877H104.274V36.5682L100.192 36.55Z" fill="#3C3C3B"/>
<path d="M87.8096 77.5355V73.9561H93.0196V53.8732H87.8096V50.2938H102.266V53.8732H97.0556V73.9561H102.266V77.5355H87.8096Z" fill="#3C3C3B"/>
<path d="M108.889 77.5355V50.2938H112.961V73.9743H127.702L126.408 77.5537L108.889 77.5355Z" fill="#3C3C3B"/>
<path d="M140.671 78C138.686 78.004 136.719 77.6331 134.874 76.907C133.327 76.3244 131.914 75.4385 130.719 74.3022L133.416 71.5698C134.391 72.3928 135.489 73.0596 136.672 73.5462C137.937 74.0764 139.298 74.346 140.671 74.3386C141.976 74.3948 143.264 74.0271 144.34 73.2912C144.794 72.9937 145.165 72.5873 145.418 72.1097C145.671 71.632 145.799 71.0986 145.789 70.5588C145.819 70.0441 145.712 69.5306 145.479 69.0701C145.245 68.6096 144.894 68.2183 144.459 67.9357C143.379 67.255 142.255 66.6464 141.093 66.1142L137.323 64.2926C135.896 63.5896 134.604 62.6432 133.507 61.4965C132.405 60.2988 131.822 58.7186 131.884 57.0974C131.884 56.1792 132.075 55.2709 132.443 54.4287C132.838 53.5445 133.413 52.7508 134.131 52.0971C134.933 51.3749 135.867 50.8122 136.883 50.4395C138.111 50.01 139.406 49.8003 140.708 49.8202C142.444 49.795 144.166 50.1333 145.762 50.8129C147.199 51.4255 148.513 52.2893 149.642 53.3631L147.055 55.9315C146.249 55.1738 145.318 54.5578 144.303 54.11C143.201 53.6107 142.002 53.3528 140.79 53.354C140.157 53.3008 139.52 53.3732 138.915 53.5671C138.31 53.761 137.75 54.0725 137.268 54.4834C136.929 54.7753 136.654 55.1325 136.458 55.5333C136.263 55.9341 136.151 56.3701 136.131 56.815C136.123 57.5962 136.407 58.3524 136.929 58.9372C137.605 59.6466 138.411 60.2215 139.304 60.6312L144.441 63.1996C145.924 63.9143 147.268 64.8824 148.413 66.0595C148.954 66.6265 149.377 67.2942 149.657 68.0242C149.937 68.7542 150.069 69.532 150.045 70.3129C150.05 71.3415 149.826 72.3584 149.388 73.2906C148.951 74.2229 148.31 75.0473 147.514 75.7048C145.601 77.2905 143.16 78.1092 140.671 78Z" fill="#3C3C3B"/>
<path d="M70.6288 68.8102C71.7986 68.8101 72.9493 69.1051 73.9729 69.6675C74.9965 70.2298 75.8595 71.0411 76.4809 72.0253V71.2693C76.4809 67.699 74.1969 65.5222 70.6655 65.5222C67.5193 65.5222 64.8867 67.3984 64.8867 71.2784V71.8522C65.5195 70.9168 66.3742 70.1501 67.3754 69.6197C68.3767 69.0892 69.4939 68.8112 70.6288 68.8102Z" fill="#3C3C3B"/>
<path d="M48.918 9.30829V28.0797C49.0097 16.8952 52.587 11.4669 56.8064 11.4669C61.567 11.4669 64.6674 17.7422 64.7499 28.0797V9.30829H48.918Z" fill="#3C3C3B"/>
</g>
<defs>
<clipPath id="clip0_35_38">
<rect width="150" height="78" fill="white"/>
</clipPath>
</defs>
</svg>
